<svg xmlns="http://www.w3.org/2000/svg" width="38" height="38" viewBox="0 0 38 38">
  <g id="category_menu_1" transform="translate(9 15.456)">
    <rect id="사각형_6691" data-name="사각형 6691" width="38" height="38" transform="translate(-9 -15.456)" fill="none"/>
    <g id="그룹_5762" data-name="그룹 5762" transform="translate(-3.307 -3.092)">
      <path id="패스_10" data-name="패스 10" d="M225.725,561.511a1.077,1.077,0,0,1,.019-.205,18.468,18.468,0,0,0,0-7.9,1.178,1.178,0,0,1-.02-.212.9.9,0,0,1,.648-.888,53.989,53.989,0,0,1,25.08,0,.9.9,0,0,1,.648.885,1.158,1.158,0,0,1-.02.205l0,.036a27.284,27.284,0,0,0-.423,3.922,27.646,27.646,0,0,0,.426,3.931v.022a1.174,1.174,0,0,1,.02.208.9.9,0,0,1-.648.888,54.067,54.067,0,0,1-25.08,0,.9.9,0,0,1-.647-.888Z" transform="translate(-225.606 -550.716)" fill="#fff"/>
      <g id="그룹_4" data-name="그룹 4" transform="translate(0.452 0.445)">
        <g id="그룹_1" data-name="그룹 1" transform="translate(0 0)">
          <path id="패스_11" data-name="패스 11" d="M227.848,558.662a28.657,28.657,0,0,0-.435-4.012.585.585,0,0,1,.391-.715,53.678,53.678,0,0,1,24.884,0,.587.587,0,0,1,.393.715,18.673,18.673,0,0,0,0,8.026.587.587,0,0,1-.393.714,53.643,53.643,0,0,1-24.884,0,.584.584,0,0,1-.391-.714,28.654,28.654,0,0,0,.435-4.014Z" transform="translate(-227.392 -552.473)" fill="none"/>
          <path id="패스_12" data-name="패스 12" d="M227.848,558.662a28.657,28.657,0,0,0-.435-4.012.585.585,0,0,1,.391-.715,53.678,53.678,0,0,1,24.884,0,.587.587,0,0,1,.393.715,18.673,18.673,0,0,0,0,8.026.587.587,0,0,1-.393.714,53.643,53.643,0,0,1-24.884,0,.584.584,0,0,1-.391-.714,28.654,28.654,0,0,0,.435-4.014Z" transform="translate(-227.392 -552.473)" fill="#185729"/>
          <path id="패스_13" data-name="패스 13" d="M227.51,563.54a25.148,25.148,0,0,1,.338,3.43,28.655,28.655,0,0,1-.435,4.013.584.584,0,0,0,.391.714,53.637,53.637,0,0,0,24.884,0,.587.587,0,0,0,.393-.714,32.432,32.432,0,0,1-.418-3.358C249.1,564.8,242.486,562.9,234.92,562.9a42.068,42.068,0,0,0-7.41.641Z" transform="translate(-227.392 -560.781)" fill="#346c40"/>
        </g>
        <g id="그룹_2" data-name="그룹 2" transform="translate(2.453 3.531)">
          <path id="패스_14" data-name="패스 14" d="M307.91,574.065a.689.689,0,0,0,.147.444.979.979,0,0,0,.8.3H313.4a.618.618,0,0,0,.679-.625.631.631,0,0,0-.676-.626H310.1c.058-.228.157-.629.2-.806h2.971a.661.661,0,0,0,.667-.635.613.613,0,0,0-.643-.65h-4.47a.409.409,0,0,0-.418.331l-.471,2.038A1.12,1.12,0,0,0,307.91,574.065Z" transform="translate(-293.991 -571.139)" fill="#185729"/>
          <path id="패스_15" data-name="패스 15" d="M259.766,573.722l-.131.015a20.872,20.872,0,0,1-3.238.3,21.979,21.979,0,0,1-3.233-.325l-.044-.005a.38.38,0,0,0-.235.055.432.432,0,0,0-.275-.052h0a.952.952,0,0,0,.426-.612l.615-2.518v0c0-.017.01-.035.013-.052l.021-.091h-.011v-.028a.432.432,0,0,0-.069-.242.573.573,0,0,0-.17-.186.684.684,0,0,0-.423-.138h-.6a.438.438,0,0,0-.352.147l-.014-.01a.683.683,0,0,0-.421-.138h-.6a.43.43,0,0,0-.451.356l-.024.094a.811.811,0,0,0-.435-.113h-3.047a.371.371,0,0,0-.315.159.516.516,0,0,0-.017-.115.561.561,0,0,0-.559-.38h-.895a.456.456,0,0,0-.412.3c0,.013-.008.021-.084.321a.529.529,0,0,0-.047-.06.729.729,0,0,0-.57-.223h-3.165a.8.8,0,0,0-.435.1.566.566,0,0,0-.259.362c-.033.157-.423,1.711-.632,2.545l-.136.541a.748.748,0,0,0,.8,1.037l1.538.007a7.341,7.341,0,0,0,1.846-.276l.035-.011.036-.012c-.118.483-.188.777-.2.83a.755.755,0,0,0,.1.712,1.068,1.068,0,0,0,.9.284.9.9,0,0,0,.9-.76c.037-.127.347-1.368.644-2.547a.346.346,0,0,0,.084.264.38.38,0,0,0,.3.137h.029a.714.714,0,0,0-.033.108c-.083.309-.181.684-.19.727a.76.76,0,0,0,.38.815,7.549,7.549,0,0,0,3.192.425,5.711,5.711,0,0,0,2.972-1.024.17.17,0,0,0,.023-.019c.865.964,2.748,1.069,3.527,1.069.625,0,2.736-.082,3.633-1.15l.084-.188.008-.059a.38.38,0,0,0-.372-.37Zm-11.285.025.006-.026a.618.618,0,0,0,.014-.334h1.164a1,1,0,0,0,.2-.018.513.513,0,0,0,.287.4,1.429,1.429,0,0,0,.641.082.887.887,0,0,0,.559-.235.564.564,0,0,0,.187.152,1.227,1.227,0,0,0,.489.085,15.856,15.856,0,0,1-2.234.194,5.023,5.023,0,0,1-1.368-.109,1.711,1.711,0,0,1,.057-.187Zm-1.616-1.672a.707.707,0,0,0-.608.4c.173-.684.321-1.284.387-1.549a.656.656,0,0,0,.109.265l.023.032a.622.622,0,0,0,.263.178Zm-2.83,1.418a.836.836,0,0,0-.608-.09,10.7,10.7,0,0,1-1.661.1l.063-.249c.183-.724.394-1.553.449-1.792h1.716a1.276,1.276,0,0,0,.567-.1c-.157.636-.353,1.427-.526,2.132Z" transform="translate(-239.482 -569.843)" fill="#185729"/>
        </g>
        <g id="그룹_3" data-name="그룹 3" transform="translate(2.722 3.78)">
          <path id="패스_16" data-name="패스 16" d="M280.239,587.12a3.522,3.522,0,0,1-.471.117,15.571,15.571,0,0,1-2.382.218c-1.429-.008-1.49-.144-1.629-.2-.113-.055-.066-.2-.066-.2a2.6,2.6,0,0,1,.09-.309c.053-.172.025-.363-.344-.387-.152-.01-.648,0-.648,0a.385.385,0,0,0-.385.31s-.178.669-.189.718a.444.444,0,0,0,.237.489,7.557,7.557,0,0,0,2.994.38,5.2,5.2,0,0,0,2.812-.96c.106-.084.089-.125.084-.137S280.318,587.105,280.239,587.12Z" transform="translate(-267.405 -583.253)" fill="#fff"/>
          <path id="패스_17" data-name="패스 17" d="M312.545,590.177a.066.066,0,0,0-.062-.076,21.723,21.723,0,0,1-3.354.318,23.135,23.135,0,0,1-3.309-.331.066.066,0,0,0-.076.062.088.088,0,0,0,.014.046c.608.8,2.109,1.059,3.37,1.059,1.207,0,2.736-.252,3.4-1.043h0a.07.07,0,0,0,.02-.034Z" transform="translate(-292.539 -586.226)" fill="#fff"/>
          <path id="패스_18" data-name="패스 18" d="M263.274,571.222a.267.267,0,0,0-.255-.147h-.9a.147.147,0,0,0-.118.087c-.014.047-1.2,4.822-1.268,5.129-.094.419-.009.623.684.623.185,0,.456-.04.6-.538.071-.243,1.194-4.739,1.194-4.739A.826.826,0,0,0,263.274,571.222Z" transform="translate(-256.65 -571.074)" fill="#fff"/>
          <path id="패스_19" data-name="패스 19" d="M244.42,575.942a10.7,10.7,0,0,1-1.73.107c-.117,0-.228,0-.286-.1s-.013-.2.024-.361c0,0,.472-1.851.5-1.992a.266.266,0,0,1,.3-.2h1.71c.478,0,.562-.142.582-.318s-.107-.356-.411-.356h-3.156a.515.515,0,0,0-.284.056.245.245,0,0,0-.111.158c-.048.219-.72,2.884-.771,3.1-.089.356-.028.659.493.659l1.538.005a7.318,7.318,0,0,0,1.73-.254c.085-.032.273-.057.315-.249C244.937,575.882,244.543,575.925,244.42,575.942Z" transform="translate(-240.754 -572.386)" fill="#fff"/>
          <path id="패스_20" data-name="패스 20" d="M309.8,575.425h4.537c.33,0,.367-.228.367-.319a.322.322,0,0,0-.363-.319h-3.466c-.141,0-.219-.021-.185-.2.018-.1.274-1.1.274-1.1.028-.141.141-.118.195-.118h3.05a.35.35,0,0,0,.353-.33.309.309,0,0,0-.331-.341h-4.47a.1.1,0,0,0-.112.09c-.022.091-.431,1.864-.456,1.986S309,575.425,309.8,575.425Z" transform="translate(-295.255 -572.366)" fill="#fff"/>
          <path id="패스_21" data-name="패스 21" d="M298.673,574.413a1.208,1.208,0,0,0,.5.054.619.619,0,0,0,.562-.512l.618-2.526c.037-.133-.011-.185-.011-.185a.317.317,0,0,0-.1-.1.388.388,0,0,0-.223-.066h-.6c-.1,0-.126.027-.147.117-.016.057-.707,3-.707,3a.214.214,0,0,0,.112.226Z" transform="translate(-286.811 -571.074)" fill="#fff"/>
          <path id="패스_22" data-name="패스 22" d="M276.89,573.94a.38.38,0,0,0,.181-.261.3.3,0,0,0-.267-.365c-.114-.01-.083-.159-.083-.159.008-.032.034-.1.045-.147h.613c-.158.672-.273,1.18-.273,1.18a.212.212,0,0,0,.112.228,1.194,1.194,0,0,0,.5.054.617.617,0,0,0,.56-.511l.618-2.526c.038-.133-.01-.185-.01-.185-.018-.05-.1-.1-.1-.1a.38.38,0,0,0-.221-.066h-.6c-.1,0-.127.027-.147.117-.007.022-.141.573-.269,1.115h-.6c.013-.049.051-.185.051-.185.014-.046.076-.045.076-.045a1.07,1.07,0,0,0,.114-.011.328.328,0,0,0,.283-.323c0-.211-.164-.331-.414-.33H274c-.052,0-.066.031-.076.076s-.032.169-.04.2a.389.389,0,0,0,.066.261.3.3,0,0,0,.184.1l.147.014a.076.076,0,0,1,.061.1l-.264,1.005s-.026.137-.132.138h-.133a.388.388,0,0,0-.363.3c-.035.138-.068.3-.076.333s.024.063.068.063H276.6A.533.533,0,0,0,276.89,573.94Zm-.907-1.651-.223.846a.213.213,0,0,1-.193.158h-.291a.116.116,0,0,1-.109-.158l.223-.846a.213.213,0,0,1,.191-.158h.293a.115.115,0,0,1,.111.157Z" transform="translate(-266.745 -571.075)" fill="#fff"/>
        </g>
        <path id="패스_23" data-name="패스 23" d="M340.277,569.839c0-.147-.038-.17-.106-.2a.188.188,0,0,0,.13-.188c0-.068-.04-.223-.264-.223h-.423v.79h.171v-.31h.181c.13,0,.137.042.137.152a.559.559,0,0,0,.017.16h.194V570C340.277,569.984,340.277,569.956,340.277,569.839Zm-.287-.263h-.206v-.211H340c.1,0,.122.062.122.1,0,.078-.043.109-.134.109Z" transform="translate(-316.8 -565.824)" fill="#fff"/>
        <path id="패스_24" data-name="패스 24" d="M338.362,567.561a.72.72,0,1,0,.736.718.727.727,0,0,0-.736-.718Zm0,1.307a.587.587,0,1,1,.6-.588.6.6,0,0,1-.6.587Z" transform="translate(-315.218 -564.495)" fill="#fff"/>
      </g>
      <path id="패스_25" data-name="패스 25" d="M251.043,562.068a1.027,1.027,0,0,0,.708-1.22,18.38,18.38,0,0,1,0-7.874,1.026,1.026,0,0,0-.708-1.216,54.109,54.109,0,0,0-25.142,0,1.03,1.03,0,0,0-.708,1.221,18.366,18.366,0,0,1,0,7.871,1.028,1.028,0,0,0,.708,1.22,54.127,54.127,0,0,0,25.142,0Zm-24.992-.5a.51.51,0,0,1-.337-.632,18.857,18.857,0,0,0,0-8.051.509.509,0,0,1,.337-.632,53.6,53.6,0,0,1,24.842,0,.512.512,0,0,1,.337.632,18.805,18.805,0,0,0,0,8.051.513.513,0,0,1-.337.632A53.59,53.59,0,0,1,226.051,561.569Z" transform="translate(-225.165 -550.278)" fill="#fff"/>
    </g>
  </g>
</svg>
