<svg xmlns="http://www.w3.org/2000/svg" width="50" height="50" viewBox="0 0 50 50">
  <g id="main_quick_menu_3" transform="translate(7.01 4)">
    <rect id="사각형_6684" data-name="사각형 6684" width="50" height="50" transform="translate(-7.01 -4)" fill="none"/>
    <g id="그룹_5763" data-name="그룹 5763" transform="translate(2 1.237)">
      <g id="그룹_5757" data-name="그룹 5757" transform="translate(29.131)">
        <g id="그룹_5755" data-name="그룹 5755" transform="translate(0 3.775)">
          <path id="패스_14773" data-name="패스 14773" d="M29.8,7.312a.626.626,0,0,1-.624-.624V4.254a.624.624,0,0,1,1.248,0V6.688a.626.626,0,0,1-.624.624Z" transform="translate(-27.963 -3.63)"/>
          <path id="패스_14774" data-name="패스 14774" d="M31.078,6.048H28.634a.624.624,0,1,1,0-1.248h2.444a.624.624,0,1,1,0,1.248Z" transform="translate(-28.01 -3.583)"/>
        </g>
        <g id="그룹_5756" data-name="그룹 5756" transform="translate(4.545)">
          <path id="패스_14775" data-name="패스 14775" d="M34.964,5.314a.626.626,0,0,1-.624-.624V.624a.624.624,0,1,1,1.248,0V4.69A.626.626,0,0,1,34.964,5.314Z" transform="translate(-32.302)"/>
          <path id="패스_14776" data-name="패스 14776" d="M37.07,3.2H33A.624.624,0,1,1,33,1.95H37.07a.624.624,0,0,1,0,1.248Z" transform="translate(-32.38 0.078)"/>
        </g>
      </g>
      <path id="패스_14777" data-name="패스 14777" d="M16.266,24.565a.584.584,0,0,1-.322-.094L.3,14.841a.648.648,0,0,1-.3-.51.642.642,0,0,1,.27-.53l14.248-9.87a3.033,3.033,0,0,1,3.494,0L32.261,13.8a.642.642,0,0,1,.27.53.586.586,0,0,1-.3.51l-15.642,9.63a.637.637,0,0,1-.322.094ZM1.768,14.279l14.5,8.923,14.5-8.923L17.306,4.95a1.815,1.815,0,0,0-2.08,0Z" transform="translate(0 0.135)"/>
      <g id="그룹_5758" data-name="그룹 5758" transform="translate(2.382 7.571)">
        <path id="패스_14778" data-name="패스 14778" d="M21.98,12.35a.886.886,0,0,0-.728.416,1.927,1.927,0,0,0-.312,1.175,1.927,1.927,0,0,0,.312,1.175.845.845,0,0,0,1.456,0,1.927,1.927,0,0,0,.312-1.175,1.906,1.906,0,0,0-.312-1.175A.886.886,0,0,0,21.98,12.35Z" transform="translate(-1.544 -7.077)" fill="#71b6ff"/>
        <path id="패스_14779" data-name="패스 14779" d="M17.58,12.35a.886.886,0,0,0-.728.416,1.927,1.927,0,0,0-.312,1.175,1.927,1.927,0,0,0,.312,1.175.845.845,0,0,0,1.456,0,1.927,1.927,0,0,0,.312-1.175,1.906,1.906,0,0,0-.312-1.175A.886.886,0,0,0,17.58,12.35Z" transform="translate(-1.72 -7.077)" fill="#71b6ff"/>
        <path id="패스_14780" data-name="패스 14780" d="M28.908,8.99a1.063,1.063,0,0,0-.593-.426,1.732,1.732,0,0,0-.27-.062,2.02,2.02,0,0,0-.25-.021H4.686a1.817,1.817,0,0,0-.6.114,1.25,1.25,0,0,0-.312.156.773.773,0,0,0-.177.187.477.477,0,0,0-.114.312v1.716s.094.042.135.062a4.363,4.363,0,0,1,1.4,1.082,3.115,3.115,0,0,1,.749,2.652,4.856,4.856,0,0,1-.146.52,3.459,3.459,0,0,1-1,1.394,5.037,5.037,0,0,1-1.123.718v2.153a.577.577,0,0,0,.156.374.624.624,0,0,0,.125.114,1.566,1.566,0,0,0,.915.281H28a1.4,1.4,0,0,0,.842-.4A.541.541,0,0,0,29,19.556V17.414s-.094-.042-.135-.062a4.394,4.394,0,0,1-1.4-1.082,3.31,3.31,0,0,1-.738-1.487,2.527,2.527,0,0,1-.052-.582,3.175,3.175,0,0,1,.8-2.09,4.532,4.532,0,0,1,1.373-1.061c.052-.031.1-.052.156-.083V9.26a1.257,1.257,0,0,0-.031-.146A.358.358,0,0,0,28.918,9ZM11.02,15.552v.967H7.63a2.625,2.625,0,0,1,.177-.967,1.989,1.989,0,0,1,.426-.686,4.245,4.245,0,0,1,.562-.478A6.061,6.061,0,0,1,9.346,14a1.649,1.649,0,0,0,.426-.374.745.745,0,0,0,.177-.458.611.611,0,0,0-.177-.458.717.717,0,0,0-.51-.166.774.774,0,0,0-.458.146.867.867,0,0,0-.25.291l-.052.146-.863-.416s.021-.073.042-.125a1.335,1.335,0,0,1,.166-.27,1.927,1.927,0,0,1,.3-.343,1.635,1.635,0,0,1,.489-.27,1.887,1.887,0,0,1,.7-.125,1.691,1.691,0,0,1,1.217.447,1.479,1.479,0,0,1,.478,1.1,1.4,1.4,0,0,1-.156.666,1.659,1.659,0,0,1-.416.51,4.932,4.932,0,0,1-.53.385,5.707,5.707,0,0,0-.551.406,1.88,1.88,0,0,0-.426.447h2.08Zm3.973.374a1.891,1.891,0,0,1-2.933,0,2.68,2.68,0,0,1-.6-1.83,2.68,2.68,0,0,1,.6-1.83,1.891,1.891,0,0,1,2.933,0,2.68,2.68,0,0,1,.6,1.83A2.662,2.662,0,0,1,14.993,15.926Zm4.576,0a1.891,1.891,0,0,1-2.933,0,2.68,2.68,0,0,1-.6-1.83,2.68,2.68,0,0,1,.6-1.83,1.891,1.891,0,0,1,2.933,0,2.68,2.68,0,0,1,.6,1.83A2.662,2.662,0,0,1,19.569,15.926Zm4.576,0a1.891,1.891,0,0,1-2.933,0,2.733,2.733,0,0,1-.6-1.83,2.68,2.68,0,0,1,.6-1.83,1.891,1.891,0,0,1,2.933,0,2.68,2.68,0,0,1,.6,1.83A2.662,2.662,0,0,1,24.145,15.926Z" transform="translate(-2.242 -7.232)" fill="#71b6ff"/>
        <path id="패스_14781" data-name="패스 14781" d="M13.18,12.35a.886.886,0,0,0-.728.416,1.927,1.927,0,0,0-.312,1.175,1.927,1.927,0,0,0,.312,1.175.845.845,0,0,0,1.456,0,1.927,1.927,0,0,0,.312-1.175,1.906,1.906,0,0,0-.312-1.175A.886.886,0,0,0,13.18,12.35Z" transform="translate(-1.896 -7.077)" fill="#71b6ff"/>
        <path id="패스_14782" data-name="패스 14782" d="M28.446,12.958h0a3.324,3.324,0,0,1,1.009-.77,2.479,2.479,0,0,1,.416-.166.619.619,0,0,0,.416-.593V9.3a1.451,1.451,0,0,0-.052-.416,2.025,2.025,0,0,0-.166-.426,2.291,2.291,0,0,0-1.342-1.04,2.72,2.72,0,0,0-.4-.094,2.342,2.342,0,0,0-.478-.042H4.734a2.952,2.952,0,0,0-1.03.187A2.092,2.092,0,0,0,3.08,7.8a2.615,2.615,0,0,0-.416.416A1.767,1.767,0,0,0,2.29,9.287v2.132a.639.639,0,0,0,.416.593c.156.052.3.125.426.177a3.052,3.052,0,0,1,.988.759,1.957,1.957,0,0,1,.51,1.269,1,1,0,0,1-.031.322,3.305,3.305,0,0,1-.094.343,2.181,2.181,0,0,1-.645.884,3.611,3.611,0,0,1-1.154.666.616.616,0,0,0-.406.582v2.569a1.787,1.787,0,0,0,.458,1.186,1.763,1.763,0,0,0,.322.3,2.785,2.785,0,0,0,1.664.53h23.1a1.632,1.632,0,0,0,.458-.042,2.553,2.553,0,0,0,1.508-.78,1.8,1.8,0,0,0,.478-1.2V17.014a.639.639,0,0,0-.416-.593c-.156-.052-.3-.125-.426-.177a3.052,3.052,0,0,1-.988-.759,2.655,2.655,0,0,1-.218-.291,2.107,2.107,0,0,1-.26-.655,1.408,1.408,0,0,1-.031-.322,1.984,1.984,0,0,1,.125-.676,1.906,1.906,0,0,1,.364-.593Zm-1.529.166a3.148,3.148,0,0,0-.156,1.7,3.377,3.377,0,0,0,.406,1.03,4.232,4.232,0,0,0,.333.458,4.148,4.148,0,0,0,1.4,1.082c.042.021.094.042.135.062v2.142a.541.541,0,0,1-.156.364,1.4,1.4,0,0,1-.842.4H4.744a1.566,1.566,0,0,1-.915-.281,1.247,1.247,0,0,1-.125-.114.525.525,0,0,1-.156-.374V17.43a5.174,5.174,0,0,0,1.123-.718,3.459,3.459,0,0,0,1-1.394,3.24,3.24,0,0,0,.146-.52,2.528,2.528,0,0,0,.052-.582,3.174,3.174,0,0,0-.8-2.07,4.148,4.148,0,0,0-1.4-1.082c-.042-.021-.094-.042-.135-.062V9.287a.494.494,0,0,1,.114-.312,1.031,1.031,0,0,1,.177-.187.971.971,0,0,1,.312-.156,1.588,1.588,0,0,1,.6-.114H27.843a.972.972,0,0,1,.25.021c.094.021.2.042.27.062a1.018,1.018,0,0,1,.593.426.5.5,0,0,1,.052.114.729.729,0,0,0,.031.146v1.706a1.136,1.136,0,0,0-.156.083,4.532,4.532,0,0,0-1.373,1.061,3.2,3.2,0,0,0-.593.978Z" transform="translate(-2.29 -7.28)"/>
        <path id="패스_14783" data-name="패스 14783" d="M9.217,14.975c.187-.146.374-.281.551-.406s.354-.25.53-.385a1.791,1.791,0,0,0,.416-.51,1.505,1.505,0,0,0-.322-1.768,1.754,1.754,0,0,0-1.217-.447,1.648,1.648,0,0,0-1.487.738,2.133,2.133,0,0,0-.166.27c-.021.052-.031.094-.042.125l.863.416.052-.146a.78.78,0,0,1,.25-.291.69.69,0,0,1,.458-.146.7.7,0,0,1,.51.166.574.574,0,0,1,.177.458.7.7,0,0,1-.177.458,1.649,1.649,0,0,1-.426.374c-.166.1-.354.239-.551.385s-.385.312-.562.478a1.989,1.989,0,0,0-.426.686,2.625,2.625,0,0,0-.177.967h3.39v-.967H8.78a1.7,1.7,0,0,1,.426-.447Z" transform="translate(-2.083 -7.113)"/>
        <path id="패스_14784" data-name="패스 14784" d="M13.22,11.45a1.855,1.855,0,0,0-1.466.7,2.68,2.68,0,0,0-.6,1.83,2.662,2.662,0,0,0,.6,1.83,1.891,1.891,0,0,0,2.933,0,2.68,2.68,0,0,0,.6-1.83,2.68,2.68,0,0,0-.6-1.83,1.87,1.87,0,0,0-1.466-.7Zm.728,3.7a.845.845,0,0,1-1.456,0,1.927,1.927,0,0,1-.312-1.175,1.906,1.906,0,0,1,.312-1.175.845.845,0,0,1,1.456,0,1.927,1.927,0,0,1,.312,1.175A1.927,1.927,0,0,1,13.948,15.152Z" transform="translate(-1.936 -7.113)"/>
        <path id="패스_14785" data-name="패스 14785" d="M17.62,11.45a1.855,1.855,0,0,0-1.466.7,2.68,2.68,0,0,0-.6,1.83,2.662,2.662,0,0,0,.6,1.83,1.891,1.891,0,0,0,2.933,0,2.68,2.68,0,0,0,.6-1.83,2.68,2.68,0,0,0-.6-1.83,1.87,1.87,0,0,0-1.466-.7Zm.728,3.7a.845.845,0,0,1-1.456,0,1.927,1.927,0,0,1-.312-1.175,1.906,1.906,0,0,1,.312-1.175.845.845,0,0,1,1.456,0,1.927,1.927,0,0,1,.312,1.175A1.927,1.927,0,0,1,18.348,15.152Z" transform="translate(-1.76 -7.113)"/>
        <path id="패스_14786" data-name="패스 14786" d="M22.02,11.45a1.855,1.855,0,0,0-1.466.7,2.733,2.733,0,0,0-.6,1.83,2.662,2.662,0,0,0,.6,1.83,1.9,1.9,0,0,0,1.466.7,1.855,1.855,0,0,0,1.466-.7,2.68,2.68,0,0,0,.6-1.83,2.68,2.68,0,0,0-.6-1.83,1.87,1.87,0,0,0-1.466-.7Zm.728,3.7a.845.845,0,0,1-1.456,0,1.927,1.927,0,0,1-.312-1.175,1.906,1.906,0,0,1,.312-1.175.845.845,0,0,1,1.456,0,1.927,1.927,0,0,1,.312,1.175A1.927,1.927,0,0,1,22.748,15.152Z" transform="translate(-1.584 -7.113)"/>
      </g>
      <g id="그룹_5759" data-name="그룹 5759" transform="translate(-0.01 13.824)">
        <path id="패스_14787" data-name="패스 14787" d="M16.242,23.52.6,13.89V29.532a4.825,4.825,0,0,0,4.815,4.815H27.078a4.825,4.825,0,0,0,4.815-4.815V13.89L16.252,23.52h0Z" transform="translate(0.034 -13.268)" fill="#fffdfd"/>
        <path id="패스_14788" data-name="패스 14788" d="M32.22,13.373a.629.629,0,0,0-.634.01L16.266,22.816.947,13.384a.631.631,0,0,0-.957.53V29.555a5.45,5.45,0,0,0,5.439,5.439H27.1a5.45,5.45,0,0,0,5.439-5.439V13.914a.609.609,0,0,0-.322-.541Zm-.926,16.182A4.2,4.2,0,0,1,27.1,33.747H5.44a4.2,4.2,0,0,1-4.191-4.191V15.027l14.7,9.048a.638.638,0,0,0,.666,0l14.7-9.048V29.555Z" transform="translate(0.01 -13.292)"/>
      </g>
      <g id="그룹_5760" data-name="그룹 5760" transform="translate(5.253 25.2)">
        <path id="패스_14789" data-name="패스 14789" d="M5.674,30.22a.608.608,0,0,1-.52-.281.62.62,0,0,1,.177-.863l7.176-4.742a.623.623,0,0,1,.686,1.04L6.017,30.116A.6.6,0,0,1,5.674,30.22Z" transform="translate(-5.051 -24.231)"/>
        <path id="패스_14790" data-name="패스 14790" d="M25.93,30.22a.6.6,0,0,1-.343-.1l-7.176-4.742a.623.623,0,0,1,.686-1.04l7.176,4.742a.622.622,0,0,1,.177.863A.648.648,0,0,1,25.93,30.22Z" transform="translate(-4.528 -24.231)"/>
      </g>
    </g>
  </g>
</svg>
